<svg width="44" height="44" viewBox="0 0 44 44" fill="none" xmlns="http://www.w3.org/2000/svg">
<path d="M22.0002 1.83331C10.8168 1.83331 1.8335 10.8166 1.8335 22C1.8335 33.1833 10.8168 42.1666 22.0002 42.1666C33.1835 42.1666 42.1668 33.1833 42.1668 22C42.1668 10.8166 33.1835 1.83331 22.0002 1.83331ZM15.5835 30.8C13.0168 30.8 11.0002 28.7833 11.0002 26.2166C11.0002 23.65 13.0168 21.6333 15.5835 21.6333C18.1502 21.6333 20.1668 23.65 20.1668 26.2166C20.1668 28.6 18.1502 30.8 15.5835 30.8ZM17.4168 15.2166C17.4168 12.65 19.4335 10.6333 22.0002 10.6333C24.5668 10.6333 26.5835 12.65 26.5835 15.2166C26.5835 17.7833 24.5668 19.8 22.0002 19.8C19.4335 19.8 17.4168 17.6 17.4168 15.2166ZM28.4168 30.8C25.8502 30.8 23.8335 28.7833 23.8335 26.2166C23.8335 23.65 25.8502 21.6333 28.4168 21.6333C30.9835 21.6333 33.0002 23.65 33.0002 26.2166C33.0002 28.6 30.9835 30.8 28.4168 30.8Z" fill="#BF31C9"/>
</svg>
