<svg width="44" height="44" viewBox="0 0 44 44" fill="none" xmlns="http://www.w3.org/2000/svg">
<path d="M23.2833 24.5667C24.2 28.9667 24.75 33.55 24.75 38.1334C24.75 39.7834 23.1 41.25 21.2667 41.25H6.23333C4.4 41.25 2.75 39.7834 2.75 38.1334C2.75 33.55 3.3 28.9667 4.21667 24.5667L7.33333 10.0834H20.1667L23.2833 24.5667Z" fill="#F57B31"/>
<path fill-rule="evenodd" clip-rule="evenodd" d="M20.1668 7.33333H7.3335V4.58333C7.3335 3.48333 8.06683 2.75 9.16683 2.75H18.3335C19.4335 2.75 20.1668 3.48333 20.1668 4.58333V7.33333Z" fill="#F57B31"/>
<path d="M41.25 38.1334C41.25 39.05 40.8833 39.7834 40.15 40.3334C39.6 40.8834 38.6833 41.25 37.5833 41.25H28.4167C28.7833 40.3334 29.15 39.2334 29.15 38.1334C29.15 33.1834 28.6 28.4167 27.6833 23.65L24.75 10.0834H36.6667L39.7833 24.5667C40.7 28.9667 41.25 33.55 41.25 38.1334Z" fill="#F57B31"/>
<path fill-rule="evenodd" clip-rule="evenodd" d="M36.6664 4.58333V7.33333H24.7497V4.58333C24.7497 4.03333 24.7497 3.66667 24.5664 3.11667C24.9331 2.93333 25.2997 2.75 25.6664 2.75H34.8331C35.7497 2.75 36.6664 3.66667 36.6664 4.58333Z" fill="#F57B31"/>
</svg>
