<svg width="44" height="44" viewBox="0 0 44 44" fill="none" xmlns="http://www.w3.org/2000/svg">
<path d="M33.1835 24.0167C33.5502 25.4834 33.1835 27.3167 32.0835 28.4167C30.2502 30.25 27.3168 30.25 25.6668 28.4167C23.8335 26.5834 23.8335 23.65 25.6668 22C26.9502 20.7167 28.6002 20.35 30.0668 20.9L39.2335 11.7334C35.7502 5.68337 29.3335 1.83337 22.0002 1.83337C10.8168 1.83337 1.8335 10.8167 1.8335 22C1.8335 24.0167 2.20016 26.2167 2.75016 28.05L10.8168 19.9834C10.4502 18.5167 10.8168 16.6834 11.9168 15.5834C13.7502 13.75 16.6835 13.75 18.3335 15.5834C20.1668 17.4167 20.1668 20.35 18.3335 22C17.0502 23.2834 15.4002 23.65 13.9335 23.1L4.76683 32.2667C8.25016 38.3167 14.6668 42.1667 22.0002 42.1667C33.1835 42.1667 42.1668 33.1834 42.1668 22C42.1668 19.9834 41.8002 17.7834 41.2502 15.95L33.1835 24.0167Z" fill="#337BD6"/>
</svg>
