<svg width="44" height="44" xmlns="http://www.w3.org/2000/svg">
<path d="M36.6667 3.66669H7.33341C5.31675 3.66669 3.66675 5.31669 3.66675 7.33335V36.6667C3.66675 38.6834 5.31675 40.3334 7.33341 40.3334H36.6667C38.6834 40.3334 40.3334 38.6834 40.3334 36.6667V7.33335C40.3334 5.31669 38.6834 3.66669 36.6667 3.66669ZM31.7167 15.2167C31.7167 16.3167 30.9834 17.05 29.8834 17.05H24.3834V27.1334H29.8834C30.9834 27.1334 31.7167 27.8667 31.7167 28.9667V31.7167H12.4667V28.9667C12.4667 27.8667 13.2001 27.1334 14.3001 27.1334H19.8001V17.05H14.3001C13.2001 17.05 12.4667 16.3167 12.4667 15.2167V12.4667H31.7167V15.2167Z" fill="#D6434C"/>
</svg>
