<svg width="44" height="44" viewBox="0 0 44 44" fill="none" xmlns="http://www.w3.org/2000/svg">
<path d="M20.1667 10.0833C23.1 14.3 24.75 19.25 24.75 24.3833V38.1333C24.75 39.7833 23.1 41.25 21.2667 41.25H6.23333C4.4 41.25 2.75 39.7833 2.75 38.1333V24.3833C2.75 19.25 4.4 14.3 7.33333 10.0833H20.1667Z" fill="#299E63"/>
<path fill-rule="evenodd" clip-rule="evenodd" d="M20.1668 7.33333H7.3335V4.58333C7.3335 3.48333 8.06683 2.75 9.16683 2.75H18.3335C19.4335 2.75 20.1668 3.48333 20.1668 4.58333V7.33333Z" fill="#299E63"/>
<path d="M41.2501 24.3833V38.1333C41.2501 39.7833 39.6001 41.25 37.7667 41.25H28.6001C28.9667 40.3333 29.3334 39.2333 29.3334 38.1333V24.3833C29.3334 19.25 28.0501 14.4833 25.4834 10.0833H36.6667C39.6001 14.3 41.2501 19.25 41.2501 24.3833Z" fill="#299E63"/>
<path fill-rule="evenodd" clip-rule="evenodd" d="M36.6664 4.58333V7.33333H24.7497V4.58333C24.7497 4.03333 24.7497 3.66667 24.5664 3.11667C24.9331 2.93333 25.2997 2.75 25.6664 2.75H34.8331C35.9331 2.75 36.6664 3.66667 36.6664 4.58333Z" fill="#299E63"/>
</svg>
